<svg xmlns="http://www.w3.org/2000/svg" width="1920" height="1080" viewBox="0 0 1920 1080">
  <defs>
    <radialGradient id="glow1" cx="20%" cy="30%" r="40%">
      <stop offset="0%" stop-color="#1a1040" stop-opacity="0.7"/>
      <stop offset="100%" stop-color="#04040a" stop-opacity="0"/>
    </radialGradient>
    <radialGradient id="glow2" cx="80%" cy="70%" r="45%">
      <stop offset="0%" stop-color="#0d1a30" stop-opacity="0.8"/>
      <stop offset="100%" stop-color="#04040a" stop-opacity="0"/>
    </radialGradient>
    <radialGradient id="glow3" cx="50%" cy="50%" r="30%">
      <stop offset="0%" stop-color="#0a0a1f" stop-opacity="0.5"/>
      <stop offset="100%" stop-color="#04040a" stop-opacity="0"/>
    </radialGradient>
    <filter id="noise">
      <feTurbulence type="fractalNoise" baseFrequency="0.65" numOctaves="3" stitchTiles="stitch"/>
      <feColorMatrix type="saturate" values="0"/>
      <feBlend in="SourceGraphic" mode="overlay" result="blend"/>
      <feComposite in="blend" in2="SourceGraphic" operator="in"/>
    </filter>
  </defs>
  <!-- Base dark background -->
  <rect width="1920" height="1080" fill="#05050e"/>
  <!-- Subtle grid -->
  <g stroke="#1a1a3a" stroke-width="0.5" opacity="0.35">
    <!-- Vertical lines -->
    <line x1="80" y1="0" x2="80" y2="1080"/>
    <line x1="160" y1="0" x2="160" y2="1080"/>
    <line x1="240" y1="0" x2="240" y2="1080"/>
    <line x1="320" y1="0" x2="320" y2="1080"/>
    <line x1="400" y1="0" x2="400" y2="1080"/>
    <line x1="480" y1="0" x2="480" y2="1080"/>
    <line x1="560" y1="0" x2="560" y2="1080"/>
    <line x1="640" y1="0" x2="640" y2="1080"/>
    <line x1="720" y1="0" x2="720" y2="1080"/>
    <line x1="800" y1="0" x2="800" y2="1080"/>
    <line x1="880" y1="0" x2="880" y2="1080"/>
    <line x1="960" y1="0" x2="960" y2="1080"/>
    <line x1="1040" y1="0" x2="1040" y2="1080"/>
    <line x1="1120" y1="0" x2="1120" y2="1080"/>
    <line x1="1200" y1="0" x2="1200" y2="1080"/>
    <line x1="1280" y1="0" x2="1280" y2="1080"/>
    <line x1="1360" y1="0" x2="1360" y2="1080"/>
    <line x1="1440" y1="0" x2="1440" y2="1080"/>
    <line x1="1520" y1="0" x2="1520" y2="1080"/>
    <line x1="1600" y1="0" x2="1600" y2="1080"/>
    <line x1="1680" y1="0" x2="1680" y2="1080"/>
    <line x1="1760" y1="0" x2="1760" y2="1080"/>
    <line x1="1840" y1="0" x2="1840" y2="1080"/>
    <!-- Horizontal lines -->
    <line x1="0" y1="80" x2="1920" y2="80"/>
    <line x1="0" y1="160" x2="1920" y2="160"/>
    <line x1="0" y1="240" x2="1920" y2="240"/>
    <line x1="0" y1="320" x2="1920" y2="320"/>
    <line x1="0" y1="400" x2="1920" y2="400"/>
    <line x1="0" y1="480" x2="1920" y2="480"/>
    <line x1="0" y1="560" x2="1920" y2="560"/>
    <line x1="0" y1="640" x2="1920" y2="640"/>
    <line x1="0" y1="720" x2="1920" y2="720"/>
    <line x1="0" y1="800" x2="1920" y2="800"/>
    <line x1="0" y1="880" x2="1920" y2="880"/>
    <line x1="0" y1="960" x2="1920" y2="960"/>
    <line x1="0" y1="1040" x2="1920" y2="1040"/>
  </g>
  <!-- Glow overlays -->
  <rect width="1920" height="1080" fill="url(#glow1)"/>
  <rect width="1920" height="1080" fill="url(#glow2)"/>
  <rect width="1920" height="1080" fill="url(#glow3)"/>
  <!-- Accent dots at intersections -->
  <g fill="#2a2a5a" opacity="0.4">
    <circle cx="960" cy="540" r="1.5"/>
    <circle cx="480" cy="270" r="1"/>
    <circle cx="1440" cy="810" r="1"/>
    <circle cx="320" cy="640" r="1"/>
    <circle cx="1600" cy="320" r="1"/>
  </g>
  <!-- Top-left subtle glow orb -->
  <circle cx="200" cy="200" r="300" fill="#1a0a40" opacity="0.15"/>
  <!-- Bottom-right subtle glow orb -->
  <circle cx="1720" cy="900" r="280" fill="#0a1a40" opacity="0.18"/>
</svg>
